<?xml version="1.0" standalone="no"?>
<!DOCTYPE svg PUBLIC "-//W3C//DTD SVG 20010904//EN"
 "http://www.w3.org/TR/2001/REC-SVG-20010904/DTD/svg10.dtd">
<svg version="1.0" xmlns="http://www.w3.org/2000/svg"
 width="700.000000pt" height="700.000000pt" viewBox="0 0 700.000000 700.000000"
 preserveAspectRatio="xMidYMid meet">
<metadata>
Created by potrace 1.14, written by Peter Selinger 2001-2017
</metadata>
<g transform="translate(0.000000,700.000000) scale(0.100000,-0.100000)"
fill="#000000" stroke="none">
<path d="M2903 6984 c-103 -37 -382 -429 -559 -784 -71 -142 -194 -433 -194
-457 0 -18 283 -286 400 -379 114 -91 295 -215 395 -272 76 -43 290 -150 355
-177 133 -56 114 -49 155 -60 17 -4 35 -11 40 -15 16 -12 136 -48 296 -89
l145 -37 1 192 1 193 -44 57 c-166 214 -348 538 -477 849 -42 101 -128 364
-142 435 -2 8 -4 15 -5 15 -1 0 -3 7 -5 15 -1 8 -14 69 -28 135 -14 66 -29
138 -32 160 -14 78 -16 88 -30 114 -19 37 -60 78 -95 96 -44 23 -128 27 -177
9z"/>
<path d="M895 6543 c-55 -28 -78 -57 -126 -160 -174 -365 -298 -857 -324
-1288 -6 -99 -6 -364 -1 -435 42 -541 204 -1038 496 -1520 266 -440 666 -874
1123 -1217 l68 -52 -43 -11 c-24 -6 -50 -13 -58 -16 -8 -3 -168 -44 -355 -90
-187 -46 -383 -95 -435 -109 -52 -13 -322 -81 -600 -151 -295 -73 -519 -134
-538 -146 -71 -44 -108 -126 -97 -214 7 -59 50 -130 154 -259 56 -69 209 -227
267 -275 137 -114 282 -210 437 -289 99 -51 143 -70 287 -127 81 -31 290 -91
384 -110 106 -21 181 -34 222 -39 27 -4 60 -8 74 -11 58 -9 202 -18 300 -19
80 0 117 5 155 19 55 21 142 73 171 103 11 11 66 59 124 109 58 49 107 91 110
94 5 5 406 349 449 385 13 11 29 25 35 30 6 6 42 37 80 70 l68 59 592 2 c325
0 625 4 666 8 324 31 669 148 947 320 265 164 546 440 689 679 21 34 41 64 44
67 15 13 130 256 163 345 53 143 97 308 112 423 3 20 8 51 10 67 15 91 18 313
18 1339 l0 1129 213 424 c116 233 214 429 217 436 4 10 -167 12 -822 11 -454
-1 -837 -5 -851 -8 -14 -4 -43 -9 -65 -12 -65 -9 -214 -63 -295 -106 -89 -48
-196 -126 -264 -194 -134 -133 -256 -350 -290 -519 -4 -16 -9 -41 -11 -55 -17
-79 -20 -188 -20 -579 l0 -433 -87 7 c-48 3 -98 8 -110 10 -13 2 -45 6 -73 10
-544 66 -1111 280 -1585 598 -87 58 -251 178 -270 197 -3 3 -32 28 -65 55 -67
57 -65 55 -166 151 -150 144 -272 280 -385 429 -61 80 -214 302 -214 310 0 3
-19 35 -41 72 -23 37 -79 145 -126 240 -87 177 -112 212 -173 243 -44 22 -144
24 -185 3z m4635 -1305 c55 -15 131 -87 147 -140 34 -112 -27 -236 -134 -272
-66 -23 -110 -20 -170 10 -82 42 -123 113 -119 205 7 143 137 236 276 197z"/>
</g>
</svg>
